<svg width="81" height="94" viewBox="0 0 81 94" fill="none" xmlns="http://www.w3.org/2000/svg">
<path d="M11.9338 57.9634C11.9338 59.4772 11.3331 60.9291 10.2639 61.9995C9.1947 63.07 7.74457 63.6714 6.2325 63.6714C4.72044 63.6714 3.2703 63.07 2.20111 61.9995C1.13191 60.9291 0.53125 59.4772 0.53125 57.9634V35.1313C0.549397 33.6294 1.15805 32.1952 2.22527 31.1396C3.29249 30.0839 4.73227 29.4919 6.2325 29.4919C7.73273 29.4919 9.17251 30.0839 10.2397 31.1396C11.307 32.1952 11.9156 33.6294 11.9338 35.1313V57.9634ZM36.1287 87.7217C36.1287 89.2356 35.528 90.6874 34.4589 91.7579C33.3897 92.8284 31.9395 93.4297 30.4275 93.4297C28.9154 93.4297 27.4653 92.8284 26.3961 91.7579C25.3269 90.6874 24.7262 89.2356 24.7262 87.7217V64.8897C24.7444 63.3878 25.353 61.9535 26.4202 60.8979C27.4875 59.8423 28.9272 59.2503 30.4275 59.2503C31.9277 59.2503 33.3675 59.8423 34.4347 60.8979C35.5019 61.9535 36.1106 63.3878 36.1287 64.8897V87.7217ZM56.2564 87.7217C56.2564 89.2356 55.6558 90.6874 54.5866 91.7579C53.5174 92.8284 52.0672 93.4297 50.5552 93.4297C49.0431 93.4297 47.593 92.8284 46.5238 91.7579C45.4546 90.6874 44.8539 89.2356 44.8539 87.7217V64.8897C44.8721 63.3878 45.4807 61.9535 46.5479 60.8979C47.6152 59.8423 49.0549 59.2503 50.5552 59.2503C52.0554 59.2503 53.4952 59.8423 54.5624 60.8979C55.6296 61.9535 56.2383 63.3878 56.2564 64.8897V87.7217ZM80.5557 57.9634C80.5557 59.4772 79.955 60.9291 78.8858 61.9995C77.8166 63.07 76.3665 63.6714 74.8544 63.6714C73.3424 63.6714 71.8922 63.07 70.823 61.9995C69.7538 60.9291 69.1532 59.4772 69.1532 57.9634V35.1313C69.1713 33.6294 69.78 32.1952 70.8472 31.1396C71.9144 30.0839 73.3542 29.4919 74.8544 29.4919C76.3547 29.4919 77.7944 30.0839 78.8617 31.1396C79.9289 32.1952 80.5375 33.6294 80.5557 35.1313V57.9634Z" fill="#96C03A"/>
<path d="M65.7465 29.3552V70.3951C65.7465 71.0203 65.6235 71.6395 65.3845 72.2171C65.1455 72.7948 64.7952 73.3197 64.3536 73.7618C63.912 74.2039 63.3878 74.5546 62.8108 74.7939C62.2339 75.0331 61.6155 75.1563 60.9909 75.1563H20.1666C19.542 75.1564 18.9235 75.0333 18.3464 74.7941C17.7694 74.5549 17.245 74.2042 16.8033 73.7621C16.3616 73.3199 16.0113 72.795 15.7722 72.2173C15.5332 71.6396 15.4102 71.0204 15.4102 70.3951V29.3552H65.7465ZM40.5796 5.68701C26.9086 5.68701 15.7948 14.8043 15.4627 26.1527H65.6965C65.3627 14.8035 54.2489 5.68701 40.5796 5.68701ZM29.7661 18.9023C28.2101 18.9023 26.947 17.6385 26.947 16.0806C26.9649 15.344 27.2698 14.6435 27.7965 14.1288C28.3232 13.6141 29.0301 13.326 29.7661 13.326C30.5021 13.326 31.209 13.6141 31.7357 14.1288C32.2625 14.6435 32.5673 15.344 32.5852 16.0806C32.5848 16.829 32.2876 17.5466 31.759 18.0756C31.2304 18.6047 30.5136 18.9021 29.7661 18.9023ZM51.4056 18.9023C51.0354 18.9022 50.6688 18.829 50.3268 18.6871C49.9848 18.5452 49.6741 18.3372 49.4124 18.075C49.1507 17.8128 48.9431 17.5016 48.8016 17.1591C48.66 16.8167 48.5872 16.4496 48.5873 16.079C48.5874 15.7083 48.6604 15.3413 48.8022 14.9989C48.944 14.6565 49.1517 14.3454 49.4136 14.0834C49.6754 13.8214 49.9863 13.6136 50.3284 13.4719C50.6704 13.3301 51.037 13.2572 51.4072 13.2573C52.1549 13.2575 52.8719 13.5551 53.4004 14.0846C53.929 14.6141 54.2258 15.3321 54.2255 16.0806C54.2253 16.8292 53.9281 17.547 53.3993 18.0762C52.8704 18.6053 52.1533 18.9025 51.4056 18.9023Z" fill="#96C03A"/>
<path d="M31.2172 9.46181C31.3184 9.62924 31.3511 9.82935 31.3083 10.0203C31.2656 10.2113 31.1507 10.3783 30.9879 10.4865C30.825 10.5946 30.6266 10.6356 30.4343 10.6008C30.242 10.566 30.0705 10.458 29.9558 10.2996L23.9871 1.28173C23.8763 1.11403 23.8365 0.909103 23.8765 0.712039C23.9166 0.514975 24.0332 0.341912 24.2007 0.230923C24.3682 0.119934 24.5729 0.0801103 24.7697 0.120212C24.9666 0.160315 25.1394 0.277058 25.2503 0.44476L31.2172 9.46181ZM49.9325 9.46181C49.8215 9.6294 49.7816 9.83426 49.8215 10.0313C49.8614 10.2284 49.9778 10.4015 50.1452 10.5126C50.3126 10.6237 50.5172 10.6637 50.7141 10.6237C50.9109 10.5838 51.0838 10.4672 51.1948 10.2996L57.1634 1.28173C57.2743 1.11403 57.3141 0.909103 57.274 0.712039C57.234 0.514975 57.1174 0.341912 56.9498 0.230923C56.7823 0.119934 56.5777 0.0801103 56.3808 0.120212C56.184 0.160314 56.0111 0.277058 55.9003 0.44476L49.9325 9.46181Z" fill="#96C03A"/>
</svg>
