<svg width="71" height="87" viewBox="0 0 71 87" fill="none" xmlns="http://www.w3.org/2000/svg">
<g clip-path="url(#clip0_806_72)">
<path d="M39.1744 7.57236C44.8967 0.0384382 52.8521 0.00170898 52.8521 0.00170898C52.8521 0.00170898 54.0354 7.08487 48.3506 13.9082C42.2807 21.194 35.3813 20.0018 35.3813 20.0018C35.3813 20.0018 34.0858 14.2718 39.1744 7.57236ZM36.1091 24.9636C39.053 24.9636 44.5166 20.9214 51.6282 20.9214C63.8697 20.9214 68.6855 29.6225 68.6855 29.6225C68.6855 29.6225 59.2667 34.4329 59.2667 46.105C59.2667 59.2722 71 63.8101 71 63.8101C71 63.8101 62.798 86.8705 51.7194 86.8705C46.631 86.8705 42.6751 83.4452 37.3138 83.4452C31.8502 83.4452 26.4283 86.9982 22.897 86.9982C12.7806 86.9985 0 65.1233 0 47.5393C0 30.2391 10.8179 21.1637 20.9647 21.1637C27.561 21.1637 32.6798 24.9636 36.1091 24.9636Z" fill="#999999"/>
</g>
<defs>
<clipPath id="clip0_806_72">
<rect width="71" height="87" fill="white"/>
</clipPath>
</defs>
</svg>
