<svg width="39" height="24" viewBox="0 0 39 24" fill="none" xmlns="http://www.w3.org/2000/svg">
<path d="M15.5813 10.9507C16.3672 10.5461 16.9614 10.0955 17.3685 9.60852C18.0929 8.7315 18.4504 7.56859 18.4504 6.12707C18.4504 4.72431 18.0929 3.52506 17.378 2.51963C16.1849 0.881872 14.1656 0.043609 11.3107 0H0V23.6288H10.5461C11.7345 23.6288 12.8352 23.5246 13.8532 23.3114C14.8711 23.0958 15.7517 22.7009 16.4974 22.1243C17.1602 21.6228 17.7142 21.0002 18.1545 20.2661C18.8504 19.1565 19.1984 17.8991 19.1984 16.4987C19.1984 15.142 18.893 13.9864 18.287 13.0367C17.6739 12.087 16.7744 11.3916 15.5813 10.9507ZM4.66586 4.10409H9.76019C10.8799 4.10409 11.8031 4.22765 12.5275 4.47235C13.3655 4.82849 13.7845 5.55288 13.7845 6.65765C13.7845 7.64854 13.4649 8.34144 12.8329 8.7315C12.1961 9.12156 11.3699 9.3178 10.3567 9.3178H4.66586V4.10409ZM12.7216 19.1129C12.1582 19.3915 11.3652 19.5296 10.3496 19.5296H4.66586V13.2281H10.4278C11.4315 13.2353 12.2127 13.371 12.7713 13.6254C13.7656 14.0857 14.2603 14.9288 14.2603 16.162C14.2603 17.6156 13.749 18.5944 12.7216 19.1129Z" fill="white"/>
<path d="M34.7064 1.09241H24.5376V4.006H34.7064V1.09241Z" fill="white"/>
<path d="M38.239 12.5908C38.0278 11.2348 37.5622 10.042 36.8374 9.01239C36.043 7.84599 35.035 6.99159 33.8086 6.45159C32.587 5.9092 31.2118 5.638 29.6806 5.6404C27.1102 5.6404 25.0222 6.44439 23.407 8.04039C21.7966 9.64118 20.9902 11.9428 20.9902 14.9428C20.9902 18.142 21.8806 20.4531 23.671 21.8715C25.4542 23.2923 27.5134 24.0003 29.851 24.0003C32.6806 24.0003 34.8814 23.1579 36.4534 21.4779C37.459 20.4171 38.0278 19.3732 38.1526 18.3484H33.4678C33.1966 18.8548 32.8822 19.2508 32.5222 19.5388C31.8694 20.0667 31.0198 20.3307 29.9782 20.3307C28.987 20.3307 28.147 20.1123 27.4462 19.6779C26.2894 18.982 25.6846 17.7628 25.6078 16.0276H38.3926C38.4118 14.5324 38.3638 13.3828 38.239 12.5908ZM25.723 13.0396C25.891 11.914 26.299 11.0212 26.947 10.3612C27.595 9.70358 28.5118 9.37238 29.6854 9.36998C30.7678 9.36998 31.6726 9.67958 32.4094 10.3012C33.1366 10.9276 33.547 11.8372 33.631 13.0396H25.723Z" fill="white"/>
</svg>
