<svg width="22" height="24" viewBox="0 0 22 24" fill="none" xmlns="http://www.w3.org/2000/svg">
<g opacity="0.5">
<path d="M16.6531 16.898C15.4286 17.8776 13.7143 18.6122 12 18.6122C8.08164 18.6122 5.38775 15.6735 5.38775 11.7551C5.38775 7.83673 8.08164 5.14285 12 5.14285C13.7143 5.14285 15.4286 5.63265 16.6531 6.85714L17.3878 7.59183L21.3061 3.91836L20.3265 3.18367C18.1225 1.22448 15.1837 0 12 0C5.14286 0 0 5.14286 0 12C0 18.8571 5.14286 24 12 24C15.1837 24 18.1225 22.7755 20.3265 20.8163L21.3061 20.0816L17.3878 16.1633L16.6531 16.898Z" fill="white"/>
<path d="M11.7553 15.9183C13.9193 15.9183 15.6737 14.164 15.6737 11.9999C15.6737 9.83586 13.9193 8.08154 11.7553 8.08154C9.59123 8.08154 7.83691 9.83586 7.83691 11.9999C7.83691 14.164 9.59123 15.9183 11.7553 15.9183Z" fill="white"/>
</g>
</svg>
