<svg width="24" height="25" viewBox="0 0 24 25" fill="none" xmlns="http://www.w3.org/2000/svg">
<path d="M12.0007 0.209717C5.37351 0.209717 0.000976562 5.58241 0.000976562 12.2096C0.000976562 18.8366 5.37351 24.2097 12.0007 24.2097C18.6279 24.2097 24.0008 18.8366 24.0008 12.2096C24.0008 5.58241 18.6279 0.209717 12.0007 0.209717ZM12.0009 4.42464L19.102 8.85268H4.89983L12.0009 4.42464ZM19.1905 15.9237H19.1898C19.1898 16.634 18.6142 17.2095 17.904 17.2095H6.09784C5.38759 17.2095 4.81206 16.6339 4.81206 15.9237V9.13445C4.81206 9.05932 4.81974 8.98628 4.83222 8.91452L11.6169 13.1452C11.6253 13.1504 11.6341 13.1539 11.6427 13.1587C11.6517 13.1637 11.6608 13.1685 11.6699 13.173C11.7178 13.1978 11.7672 13.2177 11.8177 13.2307C11.8229 13.2322 11.8281 13.2328 11.8333 13.234C11.8886 13.247 11.9447 13.2552 12.0007 13.2552H12.0011C12.0015 13.2552 12.0019 13.2552 12.0019 13.2552C12.0579 13.2552 12.114 13.2473 12.1693 13.234C12.1745 13.2327 12.1797 13.2322 12.1849 13.2307C12.2353 13.2177 12.2845 13.1978 12.3327 13.173C12.3418 13.1685 12.3509 13.1637 12.3599 13.1587C12.3684 13.1539 12.3773 13.1504 12.3857 13.1452L19.1704 8.91452C19.1828 8.98628 19.1905 9.05917 19.1905 9.13445V15.9237Z" fill="#024475"/>
</svg>
