<svg width="140" height="22" viewBox="0 0 140 22" fill="none" xmlns="http://www.w3.org/2000/svg">
<g clip-path="url(#clip0_5_2)">
<path d="M70.4493 22.0026C83.4395 21.763 83.4373 0.408551 70.4482 0.171631C57.4581 0.411221 57.4603 21.7657 70.4493 22.0026ZM70.4493 3.67945C79.4262 3.8433 79.4256 18.603 70.4482 18.767C61.453 18.5966 61.492 3.82899 70.4493 3.67945Z" fill="url(#paint0_linear_5_2)"/>
<path d="M70.4493 22.0026C83.4395 21.763 83.4373 0.408551 70.4482 0.171631C57.4581 0.411221 57.4603 21.7657 70.4493 22.0026ZM70.4493 3.67945C79.4262 3.8433 79.4256 18.603 70.4482 18.767C61.453 18.5966 61.492 3.82899 70.4493 3.67945Z" fill="url(#paint1_linear_5_2)"/>
<path d="M48.9536 0.164246H48.3939C46.4677 0.164246 46.453 2.2044 46.453 2.23577V2.23659V20.6619C46.4487 21.6212 46.9221 21.9853 47.4445 21.9975L48.7603 22.0314C49.7908 22.0314 49.8623 21.214 49.8586 20.651V13.0825L55.652 20.984C55.652 20.984 56.2172 22.0156 57.1263 22.0156H58.9126C58.9126 22.0156 60.2183 22.0314 59.7582 20.9873C59.7582 20.9873 59.7911 21.0172 59.5613 20.716C59.361 20.4511 54.5717 14.1235 53.4027 12.5787H53.6286C53.6286 12.5787 59.3249 12.0042 59.2876 7.01444C59.2375 0.251328 54.0998 0.164246 54.0998 0.164246H48.9536ZM49.8586 3.15534H53.4457C53.4457 3.15534 55.8328 3.08161 55.914 6.27719C55.9969 9.47245 53.2842 9.61626 53.2842 9.61626H49.8586V3.15534Z" fill="url(#paint2_linear_5_2)"/>
<path d="M48.9536 0.164246H48.3939C46.4677 0.164246 46.453 2.2044 46.453 2.23577V2.23659V20.6619C46.4487 21.6212 46.9221 21.9853 47.4445 21.9975L48.7603 22.0314C49.7908 22.0314 49.8623 21.214 49.8586 20.651V13.0825L55.652 20.984C55.652 20.984 56.2172 22.0156 57.1263 22.0156H58.9126C58.9126 22.0156 60.2183 22.0314 59.7582 20.9873C59.7582 20.9873 59.7911 21.0172 59.5613 20.716C59.361 20.4511 54.5717 14.1235 53.4027 12.5787H53.6286C53.6286 12.5787 59.3249 12.0042 59.2876 7.01444C59.2375 0.251328 54.0998 0.164246 54.0998 0.164246H48.9536ZM49.8586 3.15534H53.4457C53.4457 3.15534 55.8328 3.08161 55.914 6.27719C55.9969 9.47245 53.2842 9.61626 53.2842 9.61626H49.8586V3.15534Z" fill="url(#paint3_linear_5_2)"/>
<path d="M32.7044 0.166333C30.9767 0.164034 30.9767 2.00095 30.9767 2.00095V14.0851V14.3496V20.8608C30.9767 21.5816 31.4389 22.0312 31.9176 22.0312L33.5013 22.023C33.9793 22.023 34.4441 21.7577 34.4543 20.8925V14.3496H38.6266C38.6266 14.3496 44.5179 14.7664 44.6605 7.99892C44.8236 0.27827 39.1293 0.178426 39.1293 0.178426H33.6426H33.5884L33.045 0.167746C32.9323 0.167746 32.9011 0.164703 32.8161 0.164703C32.7865 0.164703 32.7516 0.164702 32.7044 0.166333ZM34.4535 3.57942H38.587C38.587 3.57942 41.3106 3.49546 41.4044 7.14329C41.4975 10.7899 38.4023 10.9542 38.4023 10.9542H34.4535V3.57942Z" fill="url(#paint4_linear_5_2)"/>
<path d="M32.7044 0.166333C30.988 0.164034 30.9768 1.97706 30.9767 2.00072V20.8608C30.9767 21.5816 31.4389 22.0312 31.9176 22.0312L33.5013 22.023C33.9793 22.023 34.4441 21.7577 34.4543 20.8925V14.3496H38.6266C38.6266 14.3496 44.5179 14.7664 44.6605 7.99892C44.8236 0.27827 39.1293 0.178426 39.1293 0.178426H33.6426H33.5884L33.045 0.167746C32.9323 0.167746 32.9011 0.164703 32.8161 0.164703C32.7865 0.164703 32.7516 0.164702 32.7044 0.166333ZM34.4535 3.57942H38.587C38.587 3.57942 41.3106 3.49546 41.4044 7.14329C41.4975 10.7899 38.4023 10.9542 38.4023 10.9542H34.4535V3.57942Z" fill="url(#paint5_linear_5_2)"/>
<path d="M24.4529 0.0764844L22.5498 0.103336C21.4045 0.123735 21.0663 1.95122 21.0663 1.95122L17.3575 16.152L13.6003 1.95122C13.198 0.0802663 11.9534 0.103336 11.9534 0.103336C11.9534 0.103336 11.0436 0.0810107 10.0819 0.0802691C8.59125 0.0802691 8.23431 2.48448 8.23431 2.48448L6.30959 15.554C6.30959 15.554 5.73324 19.882 5.59733 20.5757C5.3128 22.024 6.567 22.024 6.567 22.024H8.04777C8.94852 22.024 9.1237 20.6464 9.1237 20.6464L11.2188 5.33382C11.2188 5.33382 15.2935 20.1461 15.4937 20.7312C15.7684 21.5282 16.5139 21.6633 16.5139 21.6633C16.5139 21.6633 17.3806 21.6898 17.9842 21.6648C18.88 21.6274 19.157 20.8213 19.157 20.8213L23.5201 5.33382C23.5201 5.33382 25.5516 20.215 25.6557 20.9901C25.8082 22.1299 26.7414 22.0134 26.7414 22.0134H28.3278C29.3705 22.0164 29.1344 20.7895 29.1344 20.7895L26.5144 2.86174C26.0444 0.282696 24.9264 0.0681763 24.5669 0.0681763C24.4946 0.0681763 24.4529 0.0764844 24.4529 0.0764844Z" fill="url(#paint6_linear_5_2)"/>
<path d="M24.4529 0.0764844L22.5498 0.103336C21.4045 0.123735 21.0663 1.95122 21.0663 1.95122L17.3575 16.152L13.6003 1.95122C13.198 0.0802663 11.9534 0.103336 11.9534 0.103336C11.9534 0.103336 11.0436 0.0810107 10.0819 0.0802691C8.59125 0.0802691 8.23431 2.48448 8.23431 2.48448L6.30959 15.554C6.30959 15.554 5.73324 19.882 5.59733 20.5757C5.3128 22.024 6.567 22.024 6.567 22.024H8.04777C8.94852 22.024 9.1237 20.6464 9.1237 20.6464L11.2188 5.33382C11.2188 5.33382 15.2935 20.1461 15.4937 20.7312C15.7684 21.5282 16.5139 21.6633 16.5139 21.6633C16.5139 21.6633 17.3806 21.6898 17.9842 21.6648C18.88 21.6274 19.157 20.8213 19.157 20.8213L23.5201 5.33382C23.5201 5.33382 25.5516 20.215 25.6557 20.9901C25.8082 22.1299 26.7414 22.0134 26.7414 22.0134H28.3278C29.3705 22.0164 29.1344 20.7895 29.1344 20.7895L26.5144 2.86174C26.0444 0.282696 24.9264 0.0681763 24.5669 0.0681763C24.4946 0.0681763 24.4529 0.0764844 24.4529 0.0764844Z" fill="url(#paint7_linear_5_2)"/>
<path d="M96.1696 0.0889282C95.2188 0.0889282 94.8155 1.477 94.7793 1.60903C94.7777 1.61711 94.7754 1.6243 94.7727 1.6315L90.2603 14.9002C90.1435 15.2403 89.6634 15.2433 89.5438 14.9046C88.4217 11.7208 85.0748 2.22225 84.8462 1.57698C84.3188 0.0889266 83.5755 0.0889282 83.5755 0.0889282L82.0067 0.133582C81.9894 0.134324 81.9716 0.135064 81.9549 0.138105C80.7805 0.317464 81.0503 1.58975 81.0965 1.77222C81.1004 1.78549 81.1038 1.79796 81.1082 1.81123C81.3402 2.43603 87.7229 19.6098 88.1251 20.8079C88.1669 20.9314 88.2091 21.042 88.2531 21.1418C88.494 21.6856 89.0358 22.0326 89.6305 22.0326H90.3148C91.2578 21.9638 91.5148 20.9793 91.586 20.8292C91.5916 20.8178 91.5955 20.8073 91.5999 20.7955C91.818 20.188 98.001 2.95756 98.3949 1.93874C99.0224 0.313312 97.8519 0.112365 97.67 0.0915947C97.6555 0.0901115 97.6422 0.0889282 97.6277 0.0889282H96.1696Z" fill="url(#paint8_linear_5_2)"/>
<path d="M96.1696 0.0889282C95.2188 0.0889282 94.8155 1.477 94.7793 1.60903C94.7777 1.61711 94.7754 1.6243 94.7727 1.6315L90.2603 14.9002C90.1435 15.2403 89.6634 15.2433 89.5438 14.9046C88.4217 11.7208 85.0748 2.22225 84.8462 1.57698C84.3188 0.0889266 83.5755 0.0889282 83.5755 0.0889282L82.0067 0.133582C81.9894 0.134324 81.9716 0.135064 81.9549 0.138105C80.7805 0.317464 81.0503 1.58975 81.0965 1.77222C81.1004 1.78549 81.1038 1.79796 81.1082 1.81123C81.3402 2.43603 87.7229 19.6098 88.1251 20.8079C88.1669 20.9314 88.2091 21.042 88.2531 21.1418C88.494 21.6856 89.0358 22.0326 89.6305 22.0326H90.3148C91.2578 21.9638 91.5148 20.9793 91.586 20.8292C91.5916 20.8178 91.5955 20.8073 91.5999 20.7955C91.818 20.188 98.001 2.95756 98.3949 1.93874C99.0224 0.313312 97.8519 0.112365 97.67 0.0915947C97.6555 0.0901115 97.6422 0.0889282 97.6277 0.0889282H96.1696Z" fill="url(#paint9_linear_5_2)"/>
<path d="M1.22243 6.47989C0.547271 6.47989 0 7.0267 0 7.70263V20.8002C0 21.476 0.547271 22.0237 1.22243 22.0237H2.4482C3.12373 22.0237 3.671 21.476 3.671 20.8002V7.70263C3.671 7.0267 3.12373 6.47989 2.4482 6.47989H1.22243Z" fill="url(#paint10_linear_5_2)"/>
<path d="M1.22243 6.47989C0.547271 6.47989 0 7.0267 0 7.70263V20.8002C0 21.476 0.547271 22.0237 1.22243 22.0237H2.4482C3.12373 22.0237 3.671 21.476 3.671 20.8002V7.70263C3.671 7.0267 3.12373 6.47989 2.4482 6.47989H1.22243Z" fill="url(#paint11_linear_5_2)"/>
<path d="M0.0195312 1.90033V1.91546C0.0195312 2.91981 0.834436 3.73538 1.84027 3.73538C2.84469 3.73538 3.66027 2.91981 3.66027 1.91546V1.90033C3.66027 0.89434 2.84469 0.0795898 1.84027 0.0795898C0.834436 0.0795898 0.0195312 0.89434 0.0195312 1.90033Z" fill="url(#paint12_linear_5_2)"/>
<path d="M122.691 0.00915527C122.014 0.00915527 121.466 0.557913 121.466 1.23455V14.3188C121.466 14.9952 122.014 15.5435 122.691 15.5435H123.911C124.588 15.5435 125.137 14.9952 125.137 14.3188V1.23455C125.137 0.557913 124.588 0.00915527 123.911 0.00915527H122.691Z" fill="url(#paint13_linear_5_2)"/>
<path d="M122.691 0.00915527C122.014 0.00915527 121.466 0.557913 121.466 1.23455V14.3188C121.466 14.9952 122.014 15.5435 122.691 15.5435H123.911C124.588 15.5435 125.137 14.9952 125.137 14.3188V1.23455C125.137 0.557913 124.588 0.00915527 123.911 0.00915527H122.691Z" fill="url(#paint14_linear_5_2)"/>
<path d="M121.48 20.0735V20.0891C121.48 21.0939 122.296 21.9093 123.301 21.9093C124.307 21.9093 125.122 21.0939 125.122 20.0891V20.0735C125.122 19.0684 124.307 18.2528 123.301 18.2528C122.296 18.2528 121.48 19.0684 121.48 20.0735Z" fill="url(#paint15_linear_5_2)"/>
<path d="M121.48 20.0735V20.0891C121.48 21.0939 122.296 21.9093 123.301 21.9093C124.307 21.9093 125.122 21.0939 125.122 20.0891V20.0735C125.122 19.0684 124.307 18.2528 123.301 18.2528C122.296 18.2528 121.48 19.0684 121.48 20.0735Z" fill="url(#paint16_linear_5_2)"/>
<path d="M128.131 0C127.455 0 126.906 0.548389 126.906 1.22503V2.23019C126.906 2.90638 127.455 3.45485 128.131 3.45485H132.081V20.4485C132.081 21.2554 132.736 21.9092 133.542 21.9092H134.263C135.07 21.9092 135.725 21.2545 135.725 20.4485V3.45485H139.676C140.352 3.45485 140.9 2.90638 140.9 2.23019V1.22503C140.9 0.548389 140.352 0 139.676 0H128.131Z" fill="url(#paint17_linear_5_2)"/>
<path d="M128.131 0C127.455 0 126.906 0.548389 126.906 1.22503V2.23019C126.906 2.90638 127.455 3.45485 128.131 3.45485H132.081V20.4485C132.081 21.2554 132.736 21.9092 133.542 21.9092H134.263C135.07 21.9092 135.725 21.2545 135.725 20.4485V3.45485H139.676C140.352 3.45485 140.9 2.90638 140.9 2.23019V1.22503C140.9 0.548389 140.352 0 139.676 0H128.131Z" fill="url(#paint18_linear_5_2)"/>
<path d="M101.391 0.179626C100.715 0.179626 100.166 0.727939 100.166 1.40391V2.47295C100.166 3.14958 100.715 3.6976 101.391 3.6976H111.141C111.817 3.6976 112.366 3.14958 112.366 2.47295V1.40391C112.366 0.727939 111.817 0.179626 111.141 0.179626H101.391Z" fill="url(#paint19_linear_5_2)"/>
<path d="M101.391 0.179626C100.715 0.179626 100.166 0.727939 100.166 1.40391V2.47295C100.166 3.14958 100.715 3.6976 101.391 3.6976H111.141C111.817 3.6976 112.366 3.14958 112.366 2.47295V1.40391C112.366 0.727939 111.817 0.179626 111.141 0.179626H101.391Z" fill="url(#paint20_linear_5_2)"/>
<path d="M102.957 8.86166H101.156C100.609 8.86166 100.166 9.30544 100.166 9.85164V11.2534V20.5684C100.166 21.5955 100.671 22.0322 101.247 22.0322H111.141C111.817 22.0322 112.366 21.4842 112.366 20.8075V19.7389C112.366 19.0626 111.817 18.5143 111.141 18.5143H103.752V12.2427H109.612C110.289 12.2427 110.837 11.6946 110.837 11.018V10.0874C110.837 9.41037 110.289 8.86166 109.612 8.86166H102.957ZM101.332 22.0322H101.247H101.332ZM101.247 22.0322C101.212 22.0322 101.192 22.0322 101.247 22.0322V22.0322Z" fill="url(#paint21_linear_5_2)"/>
<path d="M102.957 8.86166H101.156C100.609 8.86166 100.166 9.30544 100.166 9.85164V20.5684C100.166 21.5955 100.671 22.0322 101.247 22.0322H111.141C111.817 22.0322 112.366 21.4842 112.366 20.8075V19.7389C112.366 19.0626 111.817 18.5143 111.141 18.5143H103.752V12.2427H109.612C110.289 12.2427 110.837 11.6946 110.837 11.018V10.0874C110.837 9.41037 110.289 8.86166 109.612 8.86166H102.957Z" fill="url(#paint22_linear_5_2)"/>
</g>
<defs>
<linearGradient id="paint0_linear_5_2" x1="60.7064" y1="11.0871" x2="80.1911" y2="11.0871" gradientUnits="userSpaceOnUse">
<stop stop-color="#00ABBF"/>
<stop offset="0.00134342" stop-color="#00ABBF"/>
<stop offset="0.00902349" stop-color="#00ABBF"/>
<stop offset="1" stop-color="#114575"/>
</linearGradient>
<linearGradient id="paint1_linear_5_2" x1="70.4488" y1="11.4032" x2="70.4488" y2="18.6778" gradientUnits="userSpaceOnUse">
<stop stop-color="#00ABBF"/>
<stop offset="0.00134342" stop-color="#00ABBF"/>
<stop offset="0.00902349" stop-color="#00ABBF"/>
<stop offset="1" stop-color="#114575"/>
</linearGradient>
<linearGradient id="paint2_linear_5_2" x1="46.4529" y1="11.0979" x2="59.8567" y2="11.0979" gradientUnits="userSpaceOnUse">
<stop stop-color="#00ABBF"/>
<stop offset="0.00134342" stop-color="#00ABBF"/>
<stop offset="0.00902349" stop-color="#00ABBF"/>
<stop offset="1" stop-color="#114575"/>
</linearGradient>
<linearGradient id="paint3_linear_5_2" x1="53.3336" y1="11.5028" x2="53.3336" y2="18.7777" gradientUnits="userSpaceOnUse">
<stop stop-color="#00ABBF"/>
<stop offset="0.00134342" stop-color="#00ABBF"/>
<stop offset="0.00902349" stop-color="#00ABBF"/>
<stop offset="1" stop-color="#114575"/>
</linearGradient>
<linearGradient id="paint4_linear_5_2" x1="30.9768" y1="11.098" x2="44.664" y2="11.098" gradientUnits="userSpaceOnUse">
<stop stop-color="#00ABBF"/>
<stop offset="0.00134342" stop-color="#00ABBF"/>
<stop offset="0.00902349" stop-color="#00ABBF"/>
<stop offset="1" stop-color="#114575"/>
</linearGradient>
<linearGradient id="paint5_linear_5_2" x1="37.9002" y1="11.5026" x2="37.9002" y2="18.7775" gradientUnits="userSpaceOnUse">
<stop stop-color="#00ABBF"/>
<stop offset="0.00134342" stop-color="#00ABBF"/>
<stop offset="0.00902349" stop-color="#00ABBF"/>
<stop offset="1" stop-color="#114575"/>
</linearGradient>
<linearGradient id="paint6_linear_5_2" x1="5.55533" y1="11.0461" x2="29.1573" y2="11.0461" gradientUnits="userSpaceOnUse">
<stop stop-color="#00ABBF"/>
<stop offset="0.00134342" stop-color="#00ABBF"/>
<stop offset="0.00902349" stop-color="#00ABBF"/>
<stop offset="1" stop-color="#114575"/>
</linearGradient>
<linearGradient id="paint7_linear_5_2" x1="17.3416" y1="11.5041" x2="17.3416" y2="18.7798" gradientUnits="userSpaceOnUse">
<stop stop-color="#00ABBF"/>
<stop offset="0.00134342" stop-color="#00ABBF"/>
<stop offset="0.00902349" stop-color="#00ABBF"/>
<stop offset="1" stop-color="#114575"/>
</linearGradient>
<linearGradient id="paint8_linear_5_2" x1="81.0376" y1="11.0608" x2="98.5779" y2="11.0608" gradientUnits="userSpaceOnUse">
<stop stop-color="#00ABBF"/>
<stop offset="0.00134342" stop-color="#00ABBF"/>
<stop offset="0.00902349" stop-color="#00ABBF"/>
<stop offset="1" stop-color="#114575"/>
</linearGradient>
<linearGradient id="paint9_linear_5_2" x1="89.9015" y1="11.5047" x2="89.9015" y2="18.7791" gradientUnits="userSpaceOnUse">
<stop stop-color="#00ABBF"/>
<stop offset="0.00134342" stop-color="#00ABBF"/>
<stop offset="0.00902349" stop-color="#00ABBF"/>
<stop offset="1" stop-color="#114575"/>
</linearGradient>
<linearGradient id="paint10_linear_5_2" x1="7.45475e-06" y1="14.2518" x2="3.67098" y2="14.2518" gradientUnits="userSpaceOnUse">
<stop stop-color="#00ABBF"/>
<stop offset="0.00134342" stop-color="#00ABBF"/>
<stop offset="0.00902349" stop-color="#00ABBF"/>
<stop offset="1" stop-color="#114575"/>
</linearGradient>
<linearGradient id="paint11_linear_5_2" x1="1.83549" y1="11.5025" x2="1.83549" y2="18.7771" gradientUnits="userSpaceOnUse">
<stop stop-color="#00ABBF"/>
<stop offset="0.00134342" stop-color="#00ABBF"/>
<stop offset="0.00902349" stop-color="#00ABBF"/>
<stop offset="1" stop-color="#114575"/>
</linearGradient>
<linearGradient id="paint12_linear_5_2" x1="1.83991" y1="11.4516" x2="1.83991" y2="18.7205" gradientUnits="userSpaceOnUse">
<stop stop-color="#00ABBF"/>
<stop offset="0.00134342" stop-color="#00ABBF"/>
<stop offset="0.00902349" stop-color="#00ABBF"/>
<stop offset="1" stop-color="#114575"/>
</linearGradient>
<linearGradient id="paint13_linear_5_2" x1="121.466" y1="7.77635" x2="125.137" y2="7.77635" gradientUnits="userSpaceOnUse">
<stop stop-color="#00ABBF"/>
<stop offset="0.00134342" stop-color="#00ABBF"/>
<stop offset="0.00902349" stop-color="#00ABBF"/>
<stop offset="1" stop-color="#114575"/>
</linearGradient>
<linearGradient id="paint14_linear_5_2" x1="123.301" y1="11.5019" x2="123.301" y2="18.7754" gradientUnits="userSpaceOnUse">
<stop stop-color="#00ABBF"/>
<stop offset="0.00134342" stop-color="#00ABBF"/>
<stop offset="0.00902349" stop-color="#00ABBF"/>
<stop offset="1" stop-color="#114575"/>
</linearGradient>
<linearGradient id="paint15_linear_5_2" x1="121.48" y1="20.0811" x2="125.123" y2="20.0811" gradientUnits="userSpaceOnUse">
<stop stop-color="#00ABBF"/>
<stop offset="0.00134342" stop-color="#00ABBF"/>
<stop offset="0.00902349" stop-color="#00ABBF"/>
<stop offset="1" stop-color="#114575"/>
</linearGradient>
<linearGradient id="paint16_linear_5_2" x1="123.301" y1="11.5012" x2="123.301" y2="18.7787" gradientUnits="userSpaceOnUse">
<stop stop-color="#00ABBF"/>
<stop offset="0.00134342" stop-color="#00ABBF"/>
<stop offset="0.00902349" stop-color="#00ABBF"/>
<stop offset="1" stop-color="#114575"/>
</linearGradient>
<linearGradient id="paint17_linear_5_2" x1="126.906" y1="10.9546" x2="140.9" y2="10.9546" gradientUnits="userSpaceOnUse">
<stop stop-color="#00ABBF"/>
<stop offset="0.00134342" stop-color="#00ABBF"/>
<stop offset="0.00902349" stop-color="#00ABBF"/>
<stop offset="1" stop-color="#114575"/>
</linearGradient>
<linearGradient id="paint18_linear_5_2" x1="133.903" y1="11.5035" x2="133.903" y2="18.7794" gradientUnits="userSpaceOnUse">
<stop stop-color="#00ABBF"/>
<stop offset="0.00134342" stop-color="#00ABBF"/>
<stop offset="0.00902349" stop-color="#00ABBF"/>
<stop offset="1" stop-color="#114575"/>
</linearGradient>
<linearGradient id="paint19_linear_5_2" x1="100.166" y1="1.9386" x2="112.366" y2="1.9386" gradientUnits="userSpaceOnUse">
<stop stop-color="#00ABBF"/>
<stop offset="0.00134342" stop-color="#00ABBF"/>
<stop offset="0.00902349" stop-color="#00ABBF"/>
<stop offset="1" stop-color="#114575"/>
</linearGradient>
<linearGradient id="paint20_linear_5_2" x1="106.266" y1="11.5084" x2="106.266" y2="18.7861" gradientUnits="userSpaceOnUse">
<stop stop-color="#00ABBF"/>
<stop offset="0.00134342" stop-color="#00ABBF"/>
<stop offset="0.00902349" stop-color="#00ABBF"/>
<stop offset="1" stop-color="#114575"/>
</linearGradient>
<linearGradient id="paint21_linear_5_2" x1="100.166" y1="15.4469" x2="112.366" y2="15.4469" gradientUnits="userSpaceOnUse">
<stop stop-color="#00ABBF"/>
<stop offset="0.00134342" stop-color="#00ABBF"/>
<stop offset="0.00902349" stop-color="#00ABBF"/>
<stop offset="1" stop-color="#114575"/>
</linearGradient>
<linearGradient id="paint22_linear_5_2" x1="106.266" y1="11.5043" x2="106.266" y2="18.7787" gradientUnits="userSpaceOnUse">
<stop stop-color="#00ABBF"/>
<stop offset="0.00134342" stop-color="#00ABBF"/>
<stop offset="0.00902349" stop-color="#00ABBF"/>
<stop offset="1" stop-color="#114575"/>
</linearGradient>
<clipPath id="clip0_5_2">
<rect width="140" height="22" fill="white"/>
</clipPath>
</defs>
</svg>
