<svg width="92" height="15" viewBox="0 0 92 15" fill="none" xmlns="http://www.w3.org/2000/svg">
<path d="M46.0036 14.194C54.3837 14.0394 54.3822 0.263435 46.0029 0.110596C37.6228 0.265158 37.6242 14.0411 46.0036 14.194ZM46.0036 2.37352C51.7946 2.47923 51.7943 12.0009 46.0029 12.1066C40.2 11.9968 40.2251 2.46999 46.0036 2.37352Z" fill="url(#paint0_linear_5_36)"/>
<path d="M46.0036 14.194C54.3837 14.0394 54.3822 0.263435 46.0029 0.110596C37.6228 0.265158 37.6242 14.0411 46.0036 14.194ZM46.0036 2.37352C51.7946 2.47923 51.7943 12.0009 46.0029 12.1066C40.2 11.9968 40.2251 2.46999 46.0036 2.37352Z" fill="url(#paint1_linear_5_36)"/>
<path d="M32.1366 0.106262H31.7756C30.5329 0.106262 30.5234 1.42238 30.5234 1.44263V1.44315V13.3295C30.5207 13.9484 30.8261 14.1832 31.1631 14.1911L32.0119 14.213C32.6767 14.213 32.7229 13.6857 32.7204 13.3224V8.43995L36.4578 13.5373C36.4578 13.5373 36.8225 14.2028 37.4089 14.2028H38.5613C38.5613 14.2028 39.4036 14.213 39.1068 13.5394C39.1068 13.5394 39.128 13.5587 38.9798 13.3644C38.8506 13.1935 35.7609 9.11151 35.0068 8.11494H35.1525C35.1525 8.11494 38.8272 7.74432 38.8032 4.52539C38.7709 0.16244 35.4565 0.106262 35.4565 0.106262H32.1366ZM32.7204 2.03585H35.0345C35.0345 2.03585 36.5745 1.98828 36.6269 4.04979C36.6803 6.11108 34.9303 6.20385 34.9303 6.20385H32.7204V2.03585Z" fill="url(#paint2_linear_5_36)"/>
<path d="M32.1366 0.106262H31.7756C30.5329 0.106262 30.5234 1.42238 30.5234 1.44263V1.44315V13.3295C30.5207 13.9484 30.8261 14.1832 31.1631 14.1911L32.0119 14.213C32.6767 14.213 32.7229 13.6857 32.7204 13.3224V8.43995L36.4578 13.5373C36.4578 13.5373 36.8225 14.2028 37.4089 14.2028H38.5613C38.5613 14.2028 39.4036 14.213 39.1068 13.5394C39.1068 13.5394 39.128 13.5587 38.9798 13.3644C38.8506 13.1935 35.7609 9.11151 35.0068 8.11494H35.1525C35.1525 8.11494 38.8272 7.74432 38.8032 4.52539C38.7709 0.16244 35.4565 0.106262 35.4565 0.106262H32.1366ZM32.7204 2.03585H35.0345C35.0345 2.03585 36.5745 1.98828 36.6269 4.04979C36.6803 6.11108 34.9303 6.20385 34.9303 6.20385H32.7204V2.03585Z" fill="url(#paint3_linear_5_36)"/>
<path d="M21.6539 0.107741C20.5393 0.106258 20.5393 1.29127 20.5393 1.29127V9.08689V9.2575V13.458C20.5393 13.923 20.8375 14.213 21.1463 14.213L22.168 14.2077C22.4763 14.2077 22.7762 14.0365 22.7828 13.4784V9.2575H25.4744C25.4744 9.2575 29.2749 9.52639 29.3669 5.16062C29.4721 0.179953 25.7986 0.115542 25.7986 0.115542H22.2591H22.2242L21.8736 0.108652C21.8009 0.108652 21.7808 0.106689 21.7259 0.106689C21.7068 0.106689 21.6843 0.106688 21.6539 0.107741ZM22.7823 2.30956H25.4488C25.4488 2.30956 27.2058 2.25539 27.2663 4.60865C27.3264 6.96111 25.3296 7.06712 25.3296 7.06712H22.7823V2.30956Z" fill="url(#paint4_linear_5_36)"/>
<path d="M21.6539 0.107741C20.5466 0.106258 20.5394 1.27586 20.5393 1.29112V13.458C20.5393 13.923 20.8375 14.213 21.1463 14.213L22.168 14.2077C22.4763 14.2077 22.7762 14.0365 22.7828 13.4784V9.2575H25.4744C25.4744 9.2575 29.2749 9.52639 29.3669 5.16062C29.4721 0.179953 25.7986 0.115542 25.7986 0.115542H22.2591H22.2242L21.8736 0.108652C21.8009 0.108652 21.7808 0.106689 21.7259 0.106689C21.7068 0.106689 21.6843 0.106688 21.6539 0.107741ZM22.7823 2.30956H25.4488C25.4488 2.30956 27.2058 2.25539 27.2663 4.60865C27.3264 6.96111 25.3296 7.06712 25.3296 7.06712H22.7823V2.30956Z" fill="url(#paint5_linear_5_36)"/>
<path d="M16.3306 0.0491219L15.1029 0.0664441C14.364 0.0796035 14.1458 1.25854 14.1458 1.25854L11.7533 10.4196L9.32947 1.25854C9.06993 0.0515616 8.26701 0.0664441 8.26701 0.0664441C8.26701 0.0664441 7.68012 0.0520418 7.05971 0.0515634C6.09806 0.0515634 5.86779 1.60255 5.86779 1.60255L4.62614 10.0339C4.62614 10.0339 4.25433 12.8259 4.16665 13.2733C3.9831 14.2077 4.7922 14.2077 4.7922 14.2077H5.74746C6.32854 14.2077 6.44155 13.319 6.44155 13.319L7.7931 3.44068C7.7931 3.44068 10.4218 12.9962 10.5509 13.3737C10.7281 13.8878 11.2091 13.975 11.2091 13.975C11.2091 13.975 11.7682 13.9921 12.1575 13.976C12.7355 13.9518 12.9141 13.4318 12.9141 13.4318L15.7288 3.44068C15.7288 3.44068 17.0393 13.0407 17.1065 13.5407C17.2049 14.276 17.8069 14.2009 17.8069 14.2009H18.8303C19.503 14.2028 19.3507 13.4113 19.3507 13.4113L17.6604 1.84592C17.3573 0.182151 16.6361 0.0437622 16.4041 0.0437622C16.3575 0.0437622 16.3306 0.0491219 16.3306 0.0491219Z" fill="url(#paint6_linear_5_36)"/>
<path d="M16.3306 0.0491219L15.1029 0.0664441C14.364 0.0796035 14.1458 1.25854 14.1458 1.25854L11.7533 10.4196L9.32947 1.25854C9.06993 0.0515616 8.26701 0.0664441 8.26701 0.0664441C8.26701 0.0664441 7.68012 0.0520418 7.05971 0.0515634C6.09806 0.0515634 5.86779 1.60255 5.86779 1.60255L4.62614 10.0339C4.62614 10.0339 4.25433 12.8259 4.16665 13.2733C3.9831 14.2077 4.7922 14.2077 4.7922 14.2077H5.74746C6.32854 14.2077 6.44155 13.319 6.44155 13.319L7.7931 3.44068C7.7931 3.44068 10.4218 12.9962 10.5509 13.3737C10.7281 13.8878 11.2091 13.975 11.2091 13.975C11.2091 13.975 11.7682 13.9921 12.1575 13.976C12.7355 13.9518 12.9141 13.4318 12.9141 13.4318L15.7288 3.44068C15.7288 3.44068 17.0393 13.0407 17.1065 13.5407C17.2049 14.276 17.8069 14.2009 17.8069 14.2009H18.8303C19.503 14.2028 19.3507 13.4113 19.3507 13.4113L17.6604 1.84592C17.3573 0.182151 16.6361 0.0437622 16.4041 0.0437622C16.3575 0.0437622 16.3306 0.0491219 16.3306 0.0491219Z" fill="url(#paint7_linear_5_36)"/>
<path d="M62.5962 0.0568848C61.9828 0.0568848 61.7226 0.952341 61.6993 1.03752C61.6982 1.04273 61.6968 1.04737 61.695 1.05202L58.784 9.61176C58.7087 9.83119 58.399 9.83316 58.3218 9.61463C57.5979 7.5607 55.4388 1.43311 55.2913 1.01684C54.9511 0.0568837 54.4716 0.0568848 54.4716 0.0568848L53.4595 0.0856911C53.4484 0.0861699 53.4369 0.0866472 53.4262 0.0886089C52.6685 0.204315 52.8426 1.02508 52.8724 1.14279C52.8749 1.15136 52.8771 1.1594 52.8799 1.16796C53.0296 1.57102 57.1471 12.65 57.4066 13.4229C57.4335 13.5026 57.4608 13.5739 57.4892 13.6383C57.6446 13.9892 57.9941 14.213 58.3778 14.213H58.8192C59.4275 14.1686 59.5933 13.5335 59.6393 13.4367C59.6429 13.4293 59.6454 13.4225 59.6483 13.4149C59.7889 13.023 63.7777 1.90747 64.0317 1.25022C64.4366 0.201637 63.6815 0.0720038 63.5641 0.0586049C63.5548 0.0576481 63.5462 0.0568848 63.5368 0.0568848H62.5962Z" fill="url(#paint8_linear_5_36)"/>
<path d="M62.5962 0.0568848C61.9828 0.0568848 61.7226 0.952341 61.6993 1.03752C61.6982 1.04273 61.6968 1.04737 61.695 1.05202L58.784 9.61176C58.7087 9.83119 58.399 9.83316 58.3218 9.61463C57.5979 7.5607 55.4388 1.43311 55.2913 1.01684C54.9511 0.0568837 54.4716 0.0568848 54.4716 0.0568848L53.4595 0.0856911C53.4484 0.0861699 53.4369 0.0866472 53.4262 0.0886089C52.6685 0.204315 52.8426 1.02508 52.8724 1.14279C52.8749 1.15136 52.8771 1.1594 52.8799 1.16796C53.0296 1.57102 57.1471 12.65 57.4066 13.4229C57.4335 13.5026 57.4608 13.5739 57.4892 13.6383C57.6446 13.9892 57.9941 14.213 58.3778 14.213H58.8192C59.4275 14.1686 59.5933 13.5335 59.6393 13.4367C59.6429 13.4293 59.6454 13.4225 59.6483 13.4149C59.7889 13.023 63.7777 1.90747 64.0317 1.25022C64.4366 0.201637 63.6815 0.0720038 63.5641 0.0586049C63.5548 0.0576481 63.5462 0.0568848 63.5368 0.0568848H62.5962Z" fill="url(#paint9_linear_5_36)"/>
<path d="M1.34445 4.18018C0.908897 4.18018 0.555847 4.53293 0.555847 4.96898V13.4184C0.555847 13.8543 0.908897 14.2077 1.34445 14.2077H2.13521C2.571 14.2077 2.92405 13.8543 2.92405 13.4184V4.96898C2.92405 4.53293 2.571 4.18018 2.13521 4.18018H1.34445Z" fill="url(#paint10_linear_5_36)"/>
<path d="M1.34445 4.18018C0.908897 4.18018 0.555847 4.53293 0.555847 4.96898V13.4184C0.555847 13.8543 0.908897 14.2077 1.34445 14.2077H2.13521C2.571 14.2077 2.92405 13.8543 2.92405 13.4184V4.96898C2.92405 4.53293 2.571 4.18018 2.13521 4.18018H1.34445Z" fill="url(#paint11_linear_5_36)"/>
<path d="M0.575378 1.25416V1.26393C0.575378 1.91185 1.10108 2.43798 1.74996 2.43798C2.39792 2.43798 2.92406 1.91185 2.92406 1.26393V1.25416C2.92406 0.605194 2.39792 0.0795898 1.74996 0.0795898C1.10108 0.0795898 0.575378 0.605194 0.575378 1.25416Z" fill="url(#paint12_linear_5_36)"/>
<path d="M79.7052 0.00610352C79.2685 0.00610352 78.9149 0.360113 78.9149 0.796621V9.23743C78.9149 9.67377 79.2685 10.0275 79.7052 10.0275H80.4926C80.9294 10.0275 81.2833 9.67377 81.2833 9.23743V0.796621C81.2833 0.360113 80.9294 0.00610352 80.4926 0.00610352H79.7052Z" fill="url(#paint13_linear_5_36)"/>
<path d="M79.7052 0.00610352C79.2685 0.00610352 78.9149 0.360113 78.9149 0.796621V9.23743C78.9149 9.67377 79.2685 10.0275 79.7052 10.0275H80.4926C80.9294 10.0275 81.2833 9.67377 81.2833 9.23743V0.796621C81.2833 0.360113 80.9294 0.00610352 80.4926 0.00610352H79.7052Z" fill="url(#paint14_linear_5_36)"/>
<path d="M78.9239 12.9496V12.9597C78.9239 13.6078 79.4501 14.1339 80.0986 14.1339C80.7475 14.1339 81.2732 13.6078 81.2732 12.9597V12.9496C81.2732 12.3012 80.7475 11.775 80.0986 11.775C79.4501 11.775 78.9239 12.3012 78.9239 12.9496Z" fill="url(#paint15_linear_5_36)"/>
<path d="M78.9239 12.9496V12.9597C78.9239 13.6078 79.4501 14.1339 80.0986 14.1339C80.7475 14.1339 81.2732 13.6078 81.2732 12.9597V12.9496C81.2732 12.3012 80.7475 11.775 80.0986 11.775C79.4501 11.775 78.9239 12.3012 78.9239 12.9496Z" fill="url(#paint16_linear_5_36)"/>
<path d="M83.2137 0C82.7777 0 82.4235 0.353771 82.4235 0.790278V1.43872C82.4235 1.87494 82.7777 2.22876 83.2137 2.22876H85.7622V13.1915C85.7622 13.7121 86.1846 14.1339 86.7047 14.1339H87.1698C87.6905 14.1339 88.1126 13.7115 88.1126 13.1915V2.22876H90.6614C91.0979 2.22876 91.4514 1.87494 91.4514 1.43872V0.790278C91.4514 0.353771 91.0979 0 90.6614 0H83.2137Z" fill="url(#paint17_linear_5_36)"/>
<path d="M83.2137 0C82.7777 0 82.4235 0.353771 82.4235 0.790278V1.43872C82.4235 1.87494 82.7777 2.22876 83.2137 2.22876H85.7622V13.1915C85.7622 13.7121 86.1846 14.1339 86.7047 14.1339H87.1698C87.6905 14.1339 88.1126 13.7115 88.1126 13.1915V2.22876H90.6614C91.0979 2.22876 91.4514 1.87494 91.4514 1.43872V0.790278C91.4514 0.353771 91.0979 0 90.6614 0H83.2137Z" fill="url(#paint18_linear_5_36)"/>
<path d="M65.9644 0.11554C65.5283 0.11554 65.1741 0.469262 65.1741 0.905339V1.59498C65.1741 2.03149 65.5283 2.38502 65.9644 2.38502H72.2539C72.6904 2.38502 73.0446 2.03149 73.0446 1.59498V0.905339C73.0446 0.469262 72.6904 0.11554 72.2539 0.11554H65.9644Z" fill="url(#paint19_linear_5_36)"/>
<path d="M65.9644 0.11554C65.5283 0.11554 65.1741 0.469262 65.1741 0.905339V1.59498C65.1741 2.03149 65.5283 2.38502 65.9644 2.38502H72.2539C72.6904 2.38502 73.0446 2.03149 73.0446 1.59498V0.905339C73.0446 0.469262 72.6904 0.11554 72.2539 0.11554H65.9644Z" fill="url(#paint20_linear_5_36)"/>
<path d="M66.9747 5.71655H65.8126C65.4598 5.71655 65.1741 6.00284 65.1741 6.3552V7.25946V13.2687C65.1741 13.9313 65.5 14.213 65.8711 14.213H72.2539C72.6904 14.213 73.0446 13.8595 73.0446 13.4229V12.7335C73.0446 12.2973 72.6904 11.9436 72.2539 11.9436H67.4872V7.89771H71.2677C71.7041 7.89771 72.058 7.54413 72.058 7.10761V6.50726C72.058 6.07053 71.7041 5.71655 71.2677 5.71655H66.9747ZM65.9263 14.213H65.8711H65.9263ZM65.8711 14.213C65.8485 14.213 65.8359 14.213 65.8711 14.213V14.213Z" fill="url(#paint21_linear_5_36)"/>
<path d="M66.9747 5.71655H65.8126C65.4598 5.71655 65.1741 6.00284 65.1741 6.3552V13.2687C65.1741 13.9313 65.5 14.213 65.8711 14.213H72.2539C72.6904 14.213 73.0446 13.8595 73.0446 13.4229V12.7335C73.0446 12.2973 72.6904 11.9436 72.2539 11.9436H67.4872V7.89771H71.2677C71.7041 7.89771 72.058 7.54413 72.058 7.10761V6.50726C72.058 6.07053 71.7041 5.71655 71.2677 5.71655H66.9747Z" fill="url(#paint22_linear_5_36)"/>
<defs>
<linearGradient id="paint0_linear_5_36" x1="39.7183" y1="7.15227" x2="52.2881" y2="7.15227" gradientUnits="userSpaceOnUse">
<stop stop-color="#00ABBF"/>
<stop offset="0.00134342" stop-color="#00ABBF"/>
<stop offset="0.00902349" stop-color="#00ABBF"/>
<stop offset="1" stop-color="#114575"/>
</linearGradient>
<linearGradient id="paint1_linear_5_36" x1="46.0032" y1="7.35623" x2="46.0032" y2="12.0492" gradientUnits="userSpaceOnUse">
<stop stop-color="#00ABBF"/>
<stop offset="0.00134342" stop-color="#00ABBF"/>
<stop offset="0.00902349" stop-color="#00ABBF"/>
<stop offset="1" stop-color="#114575"/>
</linearGradient>
<linearGradient id="paint2_linear_5_36" x1="30.5234" y1="7.15965" x2="39.1703" y2="7.15965" gradientUnits="userSpaceOnUse">
<stop stop-color="#00ABBF"/>
<stop offset="0.00134342" stop-color="#00ABBF"/>
<stop offset="0.00902349" stop-color="#00ABBF"/>
<stop offset="1" stop-color="#114575"/>
</linearGradient>
<linearGradient id="paint3_linear_5_36" x1="34.9622" y1="7.42088" x2="34.9622" y2="12.114" gradientUnits="userSpaceOnUse">
<stop stop-color="#00ABBF"/>
<stop offset="0.00134342" stop-color="#00ABBF"/>
<stop offset="0.00902349" stop-color="#00ABBF"/>
<stop offset="1" stop-color="#114575"/>
</linearGradient>
<linearGradient id="paint4_linear_5_36" x1="20.5394" y1="7.15986" x2="29.3692" y2="7.15986" gradientUnits="userSpaceOnUse">
<stop stop-color="#00ABBF"/>
<stop offset="0.00134342" stop-color="#00ABBF"/>
<stop offset="0.00902349" stop-color="#00ABBF"/>
<stop offset="1" stop-color="#114575"/>
</linearGradient>
<linearGradient id="paint5_linear_5_36" x1="25.0058" y1="7.42088" x2="25.0058" y2="12.114" gradientUnits="userSpaceOnUse">
<stop stop-color="#00ABBF"/>
<stop offset="0.00134342" stop-color="#00ABBF"/>
<stop offset="0.00902349" stop-color="#00ABBF"/>
<stop offset="1" stop-color="#114575"/>
</linearGradient>
<linearGradient id="paint6_linear_5_36" x1="4.13956" y1="7.12572" x2="19.3655" y2="7.12572" gradientUnits="userSpaceOnUse">
<stop stop-color="#00ABBF"/>
<stop offset="0.00134342" stop-color="#00ABBF"/>
<stop offset="0.00902349" stop-color="#00ABBF"/>
<stop offset="1" stop-color="#114575"/>
</linearGradient>
<linearGradient id="paint7_linear_5_36" x1="11.743" y1="7.42116" x2="11.743" y2="12.1148" gradientUnits="userSpaceOnUse">
<stop stop-color="#00ABBF"/>
<stop offset="0.00134342" stop-color="#00ABBF"/>
<stop offset="0.00902349" stop-color="#00ABBF"/>
<stop offset="1" stop-color="#114575"/>
</linearGradient>
<linearGradient id="paint8_linear_5_36" x1="52.8344" y1="7.13495" x2="64.1498" y2="7.13495" gradientUnits="userSpaceOnUse">
<stop stop-color="#00ABBF"/>
<stop offset="0.00134342" stop-color="#00ABBF"/>
<stop offset="0.00902349" stop-color="#00ABBF"/>
<stop offset="1" stop-color="#114575"/>
</linearGradient>
<linearGradient id="paint9_linear_5_36" x1="58.5526" y1="7.42134" x2="58.5526" y2="12.1141" gradientUnits="userSpaceOnUse">
<stop stop-color="#00ABBF"/>
<stop offset="0.00134342" stop-color="#00ABBF"/>
<stop offset="0.00902349" stop-color="#00ABBF"/>
<stop offset="1" stop-color="#114575"/>
</linearGradient>
<linearGradient id="paint10_linear_5_36" x1="0.555852" y1="9.19391" x2="2.92403" y2="9.19391" gradientUnits="userSpaceOnUse">
<stop stop-color="#00ABBF"/>
<stop offset="0.00134342" stop-color="#00ABBF"/>
<stop offset="0.00902349" stop-color="#00ABBF"/>
<stop offset="1" stop-color="#114575"/>
</linearGradient>
<linearGradient id="paint11_linear_5_36" x1="1.73994" y1="7.42031" x2="1.73994" y2="12.1132" gradientUnits="userSpaceOnUse">
<stop stop-color="#00ABBF"/>
<stop offset="0.00134342" stop-color="#00ABBF"/>
<stop offset="0.00902349" stop-color="#00ABBF"/>
<stop offset="1" stop-color="#114575"/>
</linearGradient>
<linearGradient id="paint12_linear_5_36" x1="1.74973" y1="7.41577" x2="1.74973" y2="12.105" gradientUnits="userSpaceOnUse">
<stop stop-color="#00ABBF"/>
<stop offset="0.00134342" stop-color="#00ABBF"/>
<stop offset="0.00902349" stop-color="#00ABBF"/>
<stop offset="1" stop-color="#114575"/>
</linearGradient>
<linearGradient id="paint13_linear_5_36" x1="78.9149" y1="5.0168" x2="81.2833" y2="5.0168" gradientUnits="userSpaceOnUse">
<stop stop-color="#00ABBF"/>
<stop offset="0.00134342" stop-color="#00ABBF"/>
<stop offset="0.00902349" stop-color="#00ABBF"/>
<stop offset="1" stop-color="#114575"/>
</linearGradient>
<linearGradient id="paint14_linear_5_36" x1="80.0989" y1="7.42019" x2="80.0989" y2="12.1124" gradientUnits="userSpaceOnUse">
<stop stop-color="#00ABBF"/>
<stop offset="0.00134342" stop-color="#00ABBF"/>
<stop offset="0.00902349" stop-color="#00ABBF"/>
<stop offset="1" stop-color="#114575"/>
</linearGradient>
<linearGradient id="paint15_linear_5_36" x1="78.9239" y1="12.9545" x2="81.2736" y2="12.9545" gradientUnits="userSpaceOnUse">
<stop stop-color="#00ABBF"/>
<stop offset="0.00134342" stop-color="#00ABBF"/>
<stop offset="0.00902349" stop-color="#00ABBF"/>
<stop offset="1" stop-color="#114575"/>
</linearGradient>
<linearGradient id="paint16_linear_5_36" x1="80.0986" y1="7.41949" x2="80.0986" y2="12.1143" gradientUnits="userSpaceOnUse">
<stop stop-color="#00ABBF"/>
<stop offset="0.00134342" stop-color="#00ABBF"/>
<stop offset="0.00902349" stop-color="#00ABBF"/>
<stop offset="1" stop-color="#114575"/>
</linearGradient>
<linearGradient id="paint17_linear_5_36" x1="82.4235" y1="7.06695" x2="91.4514" y2="7.06695" gradientUnits="userSpaceOnUse">
<stop stop-color="#00ABBF"/>
<stop offset="0.00134342" stop-color="#00ABBF"/>
<stop offset="0.00902349" stop-color="#00ABBF"/>
<stop offset="1" stop-color="#114575"/>
</linearGradient>
<linearGradient id="paint18_linear_5_36" x1="86.9372" y1="7.42104" x2="86.9372" y2="12.1148" gradientUnits="userSpaceOnUse">
<stop stop-color="#00ABBF"/>
<stop offset="0.00134342" stop-color="#00ABBF"/>
<stop offset="0.00902349" stop-color="#00ABBF"/>
<stop offset="1" stop-color="#114575"/>
</linearGradient>
<linearGradient id="paint19_linear_5_36" x1="65.1741" y1="1.25027" x2="73.0446" y2="1.25027" gradientUnits="userSpaceOnUse">
<stop stop-color="#00ABBF"/>
<stop offset="0.00134342" stop-color="#00ABBF"/>
<stop offset="0.00902349" stop-color="#00ABBF"/>
<stop offset="1" stop-color="#114575"/>
</linearGradient>
<linearGradient id="paint20_linear_5_36" x1="69.1093" y1="7.42386" x2="69.1093" y2="12.1188" gradientUnits="userSpaceOnUse">
<stop stop-color="#00ABBF"/>
<stop offset="0.00134342" stop-color="#00ABBF"/>
<stop offset="0.00902349" stop-color="#00ABBF"/>
<stop offset="1" stop-color="#114575"/>
</linearGradient>
<linearGradient id="paint21_linear_5_36" x1="65.1741" y1="9.96478" x2="73.0446" y2="9.96478" gradientUnits="userSpaceOnUse">
<stop stop-color="#00ABBF"/>
<stop offset="0.00134342" stop-color="#00ABBF"/>
<stop offset="0.00902349" stop-color="#00ABBF"/>
<stop offset="1" stop-color="#114575"/>
</linearGradient>
<linearGradient id="paint22_linear_5_36" x1="69.1093" y1="7.42132" x2="69.1093" y2="12.1141" gradientUnits="userSpaceOnUse">
<stop stop-color="#00ABBF"/>
<stop offset="0.00134342" stop-color="#00ABBF"/>
<stop offset="0.00902349" stop-color="#00ABBF"/>
<stop offset="1" stop-color="#114575"/>
</linearGradient>
</defs>
</svg>
