<svg width="24" height="24" viewBox="0 0 24 24" fill="none" xmlns="http://www.w3.org/2000/svg">
<g opacity="0.5" clip-path="url(#clip0_30_208)">
<path d="M23.9943 23.9996V23.9986H24.0003V15.1966C24.0003 10.8906 23.0733 7.57361 18.0393 7.57361C15.6193 7.57361 13.9953 8.90161 13.3323 10.1606H13.2623V7.97561H8.48926V23.9986H13.4593V16.0646C13.4593 13.9756 13.8553 11.9556 16.4423 11.9556C18.9913 11.9556 19.0293 14.3396 19.0293 16.1986V23.9996H23.9943Z" fill="white"/>
<path d="M0.395996 7.97729H5.372V24.0003H0.395996V7.97729Z" fill="white"/>
<path d="M2.882 0C1.291 0 0 1.291 0 2.882C0 4.473 1.291 5.791 2.882 5.791C4.473 5.791 5.764 4.473 5.764 2.882C5.763 1.291 4.472 0 2.882 0V0Z" fill="white"/>
</g>
<defs>
<clipPath id="clip0_30_208">
<rect width="24" height="24" fill="white"/>
</clipPath>
</defs>
</svg>
