<svg xmlns="http://www.w3.org/2000/svg"
     width="3000"
     height="3000"
     viewBox="0 0 1750.98 1750.99">
    <defs>
        <style>.cls-1{fill:url(#linear-gradient);}.cls-2{fill:#fff;}</style>
        <linearGradient id="linear-gradient" x1="-5363.51" y1="2510.15" x2="-5351.82" y2="2510.15"
                        gradientTransform="matrix(-1.34, 42.87, 42.87, 1.34, -113545.83, 227935.12)"
                        gradientUnits="userSpaceOnUse">
            <stop offset="0" stop-color="#00abbf"/>
            <stop offset="0" stop-color="#00abbf"/>
            <stop offset="1" stop-color="#053b5c"/>
        </linearGradient>
    </defs>
    <path class="cls-1"
          d="M1259.29,383.8c-483.52,0-875.49,391.94-875.49,875.46s392,875.53,875.49,875.53,875.49-392,875.49-875.53S1742.79,383.8,1259.29,383.8ZM898.81,1672.57l-.12.59a72,72,0,1,1-142-24.28l.1-.54a72,72,0,1,1,142,24.23Zm828.48,60.37h-68.1s-40.1,5-46.6-43.94c-4.45-33.26-91.69-672.16-91.69-672.16l-187.36,664.91s-11.85,34.63-50.33,36.23c-25.93,1-63.09-.06-63.09-.06a61.23,61.23,0,0,1-43.81-40c-8.59-25.11-183.52-661.05-183.52-661.05l-46.65,340.72c-7.59,55.46-12.56,79.37-12.56,79.37a74.38,74.38,0,0,1-147.28-20.86v0h0c-5-19.52,78.32-521.58,78.32-521.58S886.36,790.78,967,790.78c28.19,0,45.75,1,45.75,1s58.38-1,92.06,117.1l151.47,572.46,150.14-574.84S1443,790.61,1516.92,791.72l31.75-.94s75.18-2.27,97.51,103.94l115.74,785.67S1772.05,1733.07,1727.29,1732.94Z"
          transform="translate(-383.8 -383.8)"/>
    <path class="cls-2" d="M786.3,1416.05v0a74.38,74.38,0,0,0,147.28,20.86L854,1484.67S791.25,1435.6,786.3,1416.05Z"
          transform="translate(-383.8 -383.8)"/>
</svg>