<svg  viewBox="0 0 120 120" fill="none" xmlns="http://www.w3.org/2000/svg">
<g clip-path="url(#clip0_805_54)">
<path d="M57.0005 64.8182V49.2166L43.4905 41.4211L29.9805 49.2166V64.8182L43.4905 72.619L57.0005 64.8182Z" fill="#3B8739"/>
<path d="M110.203 62.4492L119.007 67.5341L110.203 72.619L96.6934 64.8182V49.2219L110.203 41.4211L118.388 46.1486C119.221 49.6595 119.728 53.2397 119.914 56.8467L114.909 59.7386V54.3069L110.203 51.591L105.497 54.3069V59.7386L110.203 62.4492Z" fill="#333333"/>
<path d="M112.829 58.5326V55.5019L110.209 53.9866L107.584 55.5019V58.5326L110.209 60.0479L112.829 58.5326Z" fill="#66A060"/>
<path d="M23.5998 49.2219V69.7911L14.5878 64.6528V54.1041L10.0898 51.5056L5.59182 54.1041V64.6475L0.474878 67.5661C0.160071 65.0583 0 62.5292 0 60.0001C0 55.3047 0.538906 50.732 1.55803 46.346L10.0898 41.4211L23.5998 49.2219Z" fill="#333333"/>
<path d="M43.4851 41.4158L56.9951 64.8128L43.4851 72.6136L29.9805 49.2166L43.4851 41.4158Z" fill="#6DA75D"/>
<path d="M29.9805 64.8181L34.6172 57.2521L29.9805 49.2166V64.8181Z" fill="#55A344"/>
<path d="M52.4935 57.0174L56.9969 49.2166L43.4922 41.4211L52.4935 57.0174Z" fill="#639D57"/>
<path d="M81.2256 23.3384V44.0356L76.6956 41.4211L63.1855 49.2219V64.8235L76.6956 72.6243L90.2056 64.8235V28.1459L81.2256 23.3384ZM81.1989 59.6158L76.6956 62.2143L72.1922 59.6158V54.4189L76.6956 51.8204L81.1989 54.4189V59.6158Z" fill="#333333"/>
<path d="M66.1318 84.0747C66.1318 84.0747 65.865 81.7963 63.4266 81.7963C60.9882 81.7963 59.3181 82.1165 59.3181 83.4664C59.3181 84.8164 64.0615 84.8163 65.865 85.3499C67.6685 85.8782 69.2585 87.2601 68.4635 89.6985C67.6685 92.1369 65.2301 92.4037 61.463 92.4037C57.696 92.4037 56.8477 89.277 56.8477 88.0551H58.9713C58.9713 88.0551 58.7045 89.9653 61.1963 90.2801C63.688 90.5949 66.0731 90.7763 66.3932 88.8501C66.8201 86.305 58.331 87.5749 57.5893 85.0831C56.9597 82.9755 57.3225 80.2063 61.5644 79.7794C65.8063 79.3526 68.138 81.2307 68.138 84.0213L66.1318 84.0747Z" fill="#66A060"/>
<path d="M45.6367 94.0151L50.3268 96.7203C52.6852 98.0809 55.6305 96.3789 55.6305 93.6576V80.1796H53.7203V93.1241C53.7203 94.6074 52.1143 95.5411 50.823 94.7941L47.5522 92.9053V79.0912L59.5149 72.1868L71.4775 79.0912V92.9053L59.5149 99.8097L56.068 97.8195L53.8164 98.7266L59.5149 102.013L73.3877 94.0045V77.9867L59.5149 69.9778L45.6421 77.9867L45.6367 94.0151Z" fill="#66A060"/>
</g>
<defs>
<clipPath id="clip0_805_54">
<rect width="120" height="120" fill="white"/>
</clipPath>
</defs>
</svg>
