<svg width="97" height="51" viewBox="0 0 97 51" fill="none" xmlns="http://www.w3.org/2000/svg">
<path d="M48.5 50.7026C75.2858 50.7026 97 39.3525 97 25.3513C97 11.3502 75.2858 0 48.5 0C21.7142 0 0 11.3502 0 25.3513C0 39.3525 21.7142 50.7026 48.5 50.7026Z" fill="#8993BE"/>
<path fill-rule="evenodd" clip-rule="evenodd" d="M13.6191 40.3621L18.9344 13.3428H31.225C36.5399 13.6764 39.1976 16.3447 39.1976 21.0151C39.1976 29.0208 32.8862 33.6908 27.2386 33.3571H21.2598L19.931 40.3621H13.6191ZM22.5882 28.3538L24.2494 18.3464H28.5678C30.8931 18.3464 32.5539 19.3471 32.5539 21.3484C32.2219 27.0194 29.5643 28.0201 26.5747 28.3538H22.5886H22.5882ZM37.9627 33.3571L43.2777 6.33813H49.5895L48.2607 13.3428H54.2398C59.5551 13.6764 61.5481 16.3447 60.8839 19.6808L58.5586 33.3571H51.9148L54.2402 21.0151C54.5721 19.3471 54.5721 18.3464 52.2471 18.3464H47.2641L44.2746 33.3571H37.9627ZM58.1331 40.3621L63.448 13.3428H75.739C81.0543 13.6764 83.7119 16.3447 83.7119 21.0151C83.7119 29.0208 77.4001 33.6908 71.7528 33.3571H65.7733L64.4445 40.3621H58.1331ZM67.1018 28.3538L68.7629 18.3464H73.0817C75.407 18.3464 77.0678 19.3471 77.0678 21.3484C76.7359 27.0194 74.0782 28.0201 71.0886 28.3538H67.1022H67.1018Z" fill="#232531"/>
</svg>
