<svg fill="none" xmlns="http://www.w3.org/2000/svg" viewBox="32.84 14.55 91.69 81.52"> <path d="M124.53 55.3202C124.53 49.2564 116.923 43.5098 105.261 39.9462C107.952 28.0799 106.756 18.639 101.485 15.6165C100.27 14.9075 98.85 14.5716 97.2987 14.5716V18.7323C98.1585 18.7323 98.85 18.9002 99.4294 19.2174C101.971 20.6727 103.074 26.2141 102.214 33.3414C102.009 35.0952 101.672 36.9423 101.261 38.8267C97.5978 37.9312 93.5982 37.2408 89.393 36.793C86.8699 33.3414 84.2533 30.2069 81.6181 27.4642C87.7109 21.8109 93.43 18.7137 97.3174 18.7137V14.553C92.1778 14.553 85.4495 18.2099 78.6464 24.5535C71.8433 18.2472 65.115 14.6276 59.9754 14.6276V18.7883C63.8441 18.7883 69.5819 21.8668 75.6747 27.4828C73.0582 30.2255 70.4416 33.3414 67.9559 36.793C63.732 37.2408 59.7324 37.9312 56.0692 38.8454C55.6394 36.9796 55.3216 35.1698 55.0973 33.4346C54.2189 26.3074 55.3029 20.766 57.826 19.2921C58.3867 18.9562 59.1156 18.807 59.9754 18.807V14.6463C58.4054 14.6463 56.985 14.9821 55.7515 15.6911C50.4997 18.7137 49.3222 28.1358 52.0322 39.9649C40.4072 43.5472 32.8379 49.2751 32.8379 55.3202C32.8379 61.384 40.4446 67.1306 52.107 70.6942C49.4157 82.5606 50.6118 92.0014 55.8823 95.024C57.0971 95.733 58.5176 96.0688 60.0875 96.0688C65.2272 96.0688 71.9555 92.4119 78.7585 86.0682C85.5616 92.3746 92.2899 95.9942 97.4296 95.9942C98.9995 95.9942 100.42 95.6583 101.653 94.9493C106.905 91.9268 108.083 82.5046 105.373 70.6756C116.96 67.1119 124.53 61.3653 124.53 55.3202ZM100.196 42.8755C99.5041 45.2823 98.6444 47.7638 97.6725 50.2453C96.9062 48.7527 96.1026 47.2601 95.2242 45.7674C94.3644 44.2748 93.4487 42.8195 92.5329 41.4015C95.1868 41.7933 97.7473 42.2784 100.196 42.8755ZM91.6357 62.746C90.1779 65.2648 88.6828 67.653 87.1315 69.8733C84.3468 70.1158 81.5246 70.2464 78.6838 70.2464C75.8616 70.2464 73.0395 70.1158 70.2734 69.8919C68.7222 67.6717 67.2083 65.3021 65.7505 62.802C64.3301 60.3578 63.0405 57.8763 61.863 55.3762C63.0218 52.876 64.3301 50.3759 65.7318 47.9317C67.1896 45.4129 68.6848 43.0247 70.236 40.8045C73.0208 40.5619 75.8429 40.4313 78.6838 40.4313C81.5059 40.4313 84.3281 40.5619 87.0941 40.7858C88.6454 43.0061 90.1593 45.3756 91.6171 47.8758C93.0375 50.3199 94.3271 52.8014 95.5045 55.3016C94.3271 57.8017 93.0375 60.3018 91.6357 62.746ZM97.6725 60.3205C98.6818 62.8206 99.5415 65.3208 100.252 67.7463C97.8034 68.3433 95.2242 68.8471 92.5515 69.2389C93.4673 67.8023 94.3831 66.3283 95.2429 64.817C96.1026 63.3244 96.9062 61.8131 97.6725 60.3205ZM78.7212 80.2284C76.983 78.4372 75.2449 76.4408 73.5254 74.2579C75.2075 74.3325 76.9269 74.3885 78.6651 74.3885C80.4219 74.3885 82.1601 74.3512 83.8608 74.2579C82.1788 76.4408 80.4406 78.4372 78.7212 80.2284ZM64.816 69.2389C62.1621 68.8471 59.6016 68.362 57.1532 67.765C57.8447 65.3581 58.7045 62.8766 59.6763 60.3951C60.4426 61.8878 61.2463 63.3804 62.1247 64.873C63.0031 66.3656 63.9002 67.8209 64.816 69.2389ZM78.6277 30.4121C80.3659 32.2032 82.104 34.1996 83.8234 36.3826C82.1414 36.3079 80.4219 36.252 78.6838 36.252C76.9269 36.252 75.1888 36.2893 73.488 36.3826C75.1701 34.1996 76.9083 32.2032 78.6277 30.4121ZM64.7973 41.4015C63.8815 42.8382 62.9657 44.3121 62.106 45.8234C61.2463 47.316 60.4426 48.8087 59.6763 50.3013C58.6671 47.8011 57.8074 45.301 57.0971 42.8755C59.5455 42.2971 62.1247 41.7933 64.7973 41.4015ZM47.8831 64.7611C41.267 61.9437 36.987 58.2495 36.987 55.3202C36.987 52.3909 41.267 48.6781 47.8831 45.8794C49.4904 45.189 51.2473 44.5733 53.0602 43.995C54.1255 47.6519 55.5272 51.4581 57.2654 55.3575C55.5459 59.2384 54.1629 63.0259 53.1162 66.6641C51.266 66.0858 49.5091 65.4514 47.8831 64.7611ZM57.9382 91.423C55.3964 89.9677 54.2937 84.4264 55.1534 77.2991C55.359 75.5452 55.6954 73.6981 56.1066 71.8137C59.7698 72.7093 63.7694 73.3996 67.9746 73.8474C70.4977 77.2991 73.1142 80.4336 75.7495 83.1763C69.6566 88.8296 63.9376 91.9268 60.0501 91.9268C59.2091 91.9081 58.4989 91.7402 57.9382 91.423ZM102.27 77.2058C103.149 84.3331 102.065 89.8744 99.5415 91.3484C98.9808 91.6842 98.2519 91.8335 97.3922 91.8335C93.5234 91.8335 87.7857 88.755 81.6928 83.139C84.3094 80.3963 86.9259 77.2804 89.4117 73.8287C93.6356 73.381 97.6351 72.6906 101.298 71.7764C101.728 73.6608 102.065 75.4706 102.27 77.2058ZM109.466 64.7611C107.858 65.4514 106.102 66.0671 104.289 66.6455C103.223 62.9886 101.822 59.1824 100.084 55.2829C101.803 51.4021 103.186 47.6146 104.233 43.9763C106.083 44.5547 107.84 45.189 109.484 45.8794C116.101 48.6967 120.381 52.3909 120.381 55.3202C120.362 58.2495 116.082 61.9624 109.466 64.7611Z" fill="#61DAFB"/> <path d="M78.6642 63.8469C83.3814 63.8469 87.2055 60.0294 87.2055 55.3203C87.2055 50.6112 83.3814 46.7937 78.6642 46.7937C73.9471 46.7937 70.123 50.6112 70.123 55.3203C70.123 60.0294 73.9471 63.8469 78.6642 63.8469Z" fill="#61DAFB"/> </svg>