<svg width="66" height="55" viewBox="0 0 66 55" fill="none" xmlns="http://www.w3.org/2000/svg">
<path d="M44.5661 8.83366C44.4102 8.6764 44.2165 8.56266 44.0073 8.49667L31.4051 4.53979C26.3656 2.95732 23.0869 5.71787 22.2037 6.60388C21.6884 7.1192 21.2938 7.6626 21.0916 8.1358L15.4779 21.3404C15.1563 22.0958 15.2658 23.1026 15.7699 24.1065C16.4917 25.5402 17.7919 26.5736 19.3463 26.9457C21.086 27.3627 22.8903 26.7969 24.3029 25.3857C24.6722 25.0164 24.9867 24.6092 25.1721 24.2638L27.0592 20.7633C27.3696 20.1833 27.8203 19.5824 28.2949 19.1078C29.9139 17.4874 30.6833 18.2288 31.0105 18.5433C33.8342 21.2688 48.6381 36.1358 48.6381 36.1358C49.1647 36.6624 49.0551 37.6607 48.3966 38.3179C47.7395 38.9736 46.7397 39.0859 46.2146 38.5622L42.0555 34.4045C41.5191 33.8667 40.6542 33.8667 40.1178 34.4045C39.5814 34.9367 39.5814 35.8058 40.1178 36.3408L44.2769 40.5013C44.802 41.025 44.6925 42.0234 44.0353 42.6791C43.3782 43.3377 42.377 43.4472 41.8547 42.9235L37.6942 38.7658C37.1578 38.2294 36.2901 38.2294 35.7565 38.7658C35.2201 39.298 35.2201 40.1671 35.7565 40.7035L39.9156 44.8626C40.4407 45.3877 40.327 46.3861 39.6713 47.0432C39.0155 47.6989 38.0172 47.8113 37.4906 47.2847L33.3316 43.127C32.798 42.5921 31.9288 42.5921 31.3938 43.127C30.8603 43.662 30.8603 44.5312 31.3938 45.0634L35.5529 49.2238C36.0795 49.7504 35.9671 50.7487 35.3114 51.4059C34.6515 52.063 33.6531 52.174 33.1294 51.6488L28.066 46.5812C28.7892 45.4944 28.5926 43.9176 27.5198 42.8406C26.3179 41.6401 24.4686 41.5291 23.3986 42.6019C24.4686 41.5305 24.3633 39.6841 23.1585 38.4807C21.9538 37.2788 20.1087 37.1679 19.0388 38.2378C20.1087 37.1679 20.0006 35.3228 18.7945 34.1209C17.5925 32.9161 15.7475 32.8066 14.6747 33.8766C15.7475 32.8066 15.6365 30.9616 14.4332 29.7554C13.3071 28.6293 11.6291 28.4762 10.5381 29.3342L2.3393 21.1354C1.80432 20.599 0.935159 20.599 0.400181 21.1354C-0.133394 21.6689 -0.133394 22.5381 0.400181 23.0745L8.57791 31.2508L6.15296 33.6758C5.083 34.7443 5.19112 36.5894 6.39728 37.7955C7.59922 38.9975 9.44427 39.1084 10.5156 38.037C9.44427 39.1084 9.55379 40.952 10.7585 42.1568C11.9605 43.3573 13.8069 43.4711 14.8783 42.3997C13.8069 43.4711 13.9151 45.3147 15.1198 46.5181C16.3246 47.7228 18.1696 47.8323 19.2396 46.7624C18.1696 47.8309 18.2777 49.6746 19.4825 50.8807C20.6858 52.0827 22.5295 52.1936 23.6022 51.1222L26.1634 48.5625L31.1916 53.5893C32.7966 55.1943 35.5108 55.0819 37.2491 53.3464C38.0958 52.4997 38.5479 51.4185 38.6111 50.3486C39.6811 50.2854 40.7637 49.8318 41.609 48.9837C42.4571 48.137 42.912 47.0558 42.9766 45.9859C44.0452 45.9227 45.1235 45.4706 45.9745 44.6225C46.8212 43.7744 47.2747 42.6946 47.3365 41.6232C48.4078 41.5614 49.489 41.1093 50.3371 40.2584C52.0727 38.5229 52.1794 35.8044 50.5786 34.2023L48.4584 32.0807L57.1641 23.3764C57.6991 22.8428 57.6991 21.9736 57.1641 21.4387L44.5661 8.83366Z" fill="#F48A4B"/>
<path d="M65.1985 11.8977L54.1044 0.803521C53.0344 -0.26784 51.2975 -0.26784 50.2261 0.803521L46.3479 4.67896C45.2779 5.74891 45.2779 7.48584 46.3479 8.5558L57.4434 19.6527C58.5148 20.7227 60.2517 20.7227 61.3217 19.6527L65.1985 15.7759C66.2671 14.7045 66.2671 12.9676 65.1985 11.8977ZM59.3755 17.5479C58.1343 17.5479 57.1261 16.5412 57.1261 15.2985C57.1261 14.0558 58.1343 13.0477 59.3755 13.0477C60.6182 13.0477 61.6264 14.0544 61.6264 15.2985C61.625 16.5398 60.6182 17.5479 59.3755 17.5479Z" fill="#F48A4B"/>
</svg>
