<svg width="60" height="60" viewBox="0 0 60 60" fill="none" xmlns="http://www.w3.org/2000/svg">
<path d="M60 30C60 13.4585 46.5415 0 30 0C13.4585 0 0 13.4585 0 30C0 38.7371 3.75709 46.6124 9.73745 52.0996L9.70909 52.1247L10.6822 52.9451C10.7455 52.9985 10.8142 53.0422 10.8775 53.0945C11.3945 53.5233 11.9302 53.9302 12.4756 54.324C12.6524 54.4516 12.8291 54.5793 13.0091 54.7036C13.5916 55.1051 14.1895 55.4858 14.8004 55.8469C14.9335 55.9255 15.0676 56.0018 15.2018 56.0782C15.8705 56.4589 16.5535 56.8178 17.2527 57.1473C17.304 57.1713 17.3564 57.1931 17.4076 57.2171C19.6865 58.2764 22.1193 59.0542 24.6633 59.5135C24.7298 59.5255 24.7964 59.5375 24.864 59.5495C25.6538 59.6858 26.4524 59.7949 27.2607 59.868C27.3589 59.8767 27.4571 59.8822 27.5564 59.8909C28.3615 59.9575 29.1753 60 30 60C30.8171 60 31.6233 59.9575 32.424 59.8931C32.5255 59.8844 32.6269 59.8789 32.7284 59.8702C33.5302 59.7971 34.3222 59.6913 35.1044 59.5571C35.172 59.5451 35.2407 59.5331 35.3084 59.52C37.8142 59.0705 40.212 58.3102 42.4615 57.2782C42.5444 57.24 42.6284 57.204 42.7113 57.1647C43.3844 56.8484 44.0422 56.5069 44.6869 56.1436C44.8473 56.0531 45.0065 55.9615 45.1658 55.8676C45.7527 55.5218 46.3298 55.1607 46.8905 54.7767C47.0924 54.6393 47.2898 54.4942 47.4895 54.3502C47.9684 54.0055 48.4385 53.6498 48.8956 53.2778C48.9971 53.196 49.1062 53.1251 49.2055 53.0411L50.2036 52.2076L50.1742 52.1825C56.2069 46.6931 60 38.7818 60 30ZM2.18182 30C2.18182 14.6607 14.6607 2.18182 30 2.18182C45.3393 2.18182 57.8182 14.6607 57.8182 30C57.8182 38.2658 54.1909 45.6971 48.4484 50.796C48.1276 50.5745 47.8047 50.376 47.4742 50.2102L38.2375 45.5924C37.4084 45.1778 36.8935 44.3444 36.8935 43.4182V40.1924C37.1073 39.9284 37.3331 39.6295 37.5665 39.3011C38.7622 37.6124 39.7211 35.7338 40.4204 33.7124C41.8025 33.0556 42.6949 31.6789 42.6949 30.1244V26.2571C42.6949 25.3113 42.348 24.3938 41.7273 23.6727V18.5815C41.784 18.0142 41.9847 14.82 39.6731 12.1844C37.6625 9.88909 34.4084 8.72727 30 8.72727C25.5916 8.72727 22.3375 9.88909 20.3269 12.1833C18.0153 14.8189 18.216 18.0153 18.2727 18.5804V23.6716C17.6531 24.3927 17.3051 25.3102 17.3051 26.256V30.1233C17.3051 31.3244 17.844 32.4447 18.7669 33.2007C19.6505 36.6622 21.4691 39.2825 22.1411 40.1705V43.3276C22.1411 44.2178 21.6556 45.036 20.8735 45.4636L12.2476 50.1687C11.9727 50.3182 11.7 50.4927 11.4273 50.688C5.75564 45.5913 2.18182 38.2058 2.18182 30Z" fill="#F48A4B"/>
</svg>
