<svg width="60" height="60" viewBox="0 0 60 60" fill="none" xmlns="http://www.w3.org/2000/svg">
<path d="M42.117 43.0068C41.567 42.9398 41.071 43.3338 41.007 43.8828C40.943 44.4318 41.335 44.9288 41.883 44.9928C52.399 46.2308 58 49.5668 58 51.4998C58 54.2138 47.348 57.9998 30 57.9998C12.652 57.9998 2 54.2138 2 51.4998C2 49.5668 7.601 46.2308 18.117 44.9928C18.665 44.9288 19.057 44.4308 18.993 43.8828C18.928 43.3338 18.432 42.9378 17.883 43.0068C7.354 44.2468 0 47.7388 0 51.4998C0 55.7238 10.305 59.9998 30 59.9998C49.695 59.9998 60 55.7238 60 51.4998C60 47.7388 52.646 44.2468 42.117 43.0068Z" fill="#F48A4B"/>
<path d="M29.8225 54.757L45.1635 32.6C50.9175 24.929 50.0855 12.32 43.3825 5.618C39.7605 1.995 34.9445 0 29.8225 0C24.7005 0 19.8845 1.995 16.2625 5.617C9.55955 12.319 8.72755 24.928 14.4585 32.569L29.8225 54.757ZM29.9995 12C33.8595 12 36.9995 15.141 36.9995 19C36.9995 22.859 33.8595 26 29.9995 26C26.1395 26 22.9995 22.859 22.9995 19C22.9995 15.141 26.1395 12 29.9995 12Z" fill="#F48A4B"/>
</svg>
