<svg width="60" height="60" viewBox="0 0 60 60" fill="none" xmlns="http://www.w3.org/2000/svg">
<path d="M58.6641 35.0859L51.6445 36.8086C51.2578 38.0391 50.7656 39.2344 50.168 40.3945L53.7539 46.3711C54.1758 47.0742 54.0703 47.9531 53.5078 48.5156L48.5156 53.5078C47.9531 54.0703 47.0742 54.1758 46.3711 53.7539L40.3945 50.168C39.2344 50.7656 38.0391 51.2578 36.8086 51.6445L35.1211 58.6641C34.9102 59.4375 34.207 60 33.3984 60H26.3672C25.5586 60 24.8555 59.4375 24.6445 58.6641L22.957 51.6445C21.7266 51.2578 20.5312 50.7656 19.3711 50.168L13.3945 53.7539C12.6914 54.1758 11.8125 54.0703 11.25 53.5078L6.25781 48.5156C5.69531 47.9531 5.58984 47.0742 6.01172 46.3711L9.59766 40.3945C9 39.2344 8.50781 38.0391 8.12109 36.8086L1.33594 35.0859C0.5625 34.9102 0 34.207 0 33.3984V26.3672C0 25.5586 0.5625 24.8555 1.33594 24.6797L8.12109 22.957C8.50781 21.7266 9 20.5312 9.59766 19.3711L6.01172 13.3945C5.58984 12.6914 5.69531 11.8125 6.25781 11.25L11.25 6.25781C11.8125 5.69531 12.6914 5.58984 13.3945 6.01172L19.3711 9.59766C20.5312 9 21.7266 8.50781 22.957 8.12109L24.6445 1.33594C24.8555 0.5625 25.5586 0 26.3672 0H33.3984C34.207 0 34.9102 0.5625 35.1211 1.33594L36.8086 8.12109C38.0391 8.50781 39.2344 9 40.3945 9.59766L46.3711 6.01172C47.0742 5.58984 47.9531 5.69531 48.5156 6.25781L53.5078 11.25C54.0703 11.8125 54.1758 12.6914 53.7539 13.3945L50.168 19.3711C50.7656 20.5312 51.2578 21.7266 51.6445 22.957L58.6641 24.6797C59.4375 24.8555 60 25.5586 60 26.3672V33.3984C60 34.207 59.4375 34.9102 58.6641 35.0859ZM29.8828 21.0938C25.0312 21.0938 21.0938 25.0312 21.0938 29.8828C21.0938 34.7344 25.0312 38.6719 29.8828 38.6719C34.7344 38.6719 38.6719 34.7344 38.6719 29.8828C38.6719 25.0312 34.7344 21.0938 29.8828 21.0938Z" fill="#F48A4B"/>
</svg>
